<?xml version="1.0" encoding="UTF-8" standalone="no"?>
<!DOCTYPE svg PUBLIC "-//W3C//DTD SVG 1.1//EN" "http://www.w3.org/Graphics/SVG/1.1/DTD/svg11.dtd">
<svg width="100%" height="100%" viewBox="0 0 500 500" version="1.1" xmlns="http://www.w3.org/2000/svg" xmlns:xlink="http://www.w3.org/1999/xlink" xml:space="preserve" xmlns:serif="http://www.serif.com/" style="fill-rule:evenodd;clip-rule:evenodd;stroke-linejoin:round;stroke-miterlimit:2;">
    <path d="M6.5,263.996L6.5,236.004C6.5,235.699 6.639,235.411 6.878,235.221L20.14,224.69C20.291,224.57 20.474,224.496 20.666,224.478L62.054,220.485C63.883,208.764 66.785,197.395 70.654,186.483C70.891,185.815 71.132,185.148 71.376,184.483L112.538,184.483C112.221,185.147 111.908,185.814 111.6,186.483C102.702,205.82 97.739,227.335 97.739,250C97.739,271.9 102.373,292.726 110.712,311.551C111.009,312.22 111.31,312.887 111.616,313.551L70.666,313.551C70.43,312.886 70.198,312.219 69.969,311.551C66.441,301.241 63.774,290.534 62.054,279.515L20.666,275.522C20.474,275.504 20.291,275.43 20.14,275.31L6.878,264.779C6.639,264.589 6.5,264.301 6.5,263.996Z"/>
    <g transform="matrix(-1,0,0,1,500,0)">
        <path d="M111.6,186.483C111.908,185.814 112.221,185.147 112.538,184.483L71.376,184.483C71.132,185.148 70.891,185.815 70.654,186.483C66.785,197.395 63.883,208.764 62.054,220.485L20.666,224.478C20.474,224.496 20.291,224.57 20.14,224.69L6.878,235.221C6.639,235.411 6.5,235.699 6.5,236.004L6.5,263.996C6.5,264.301 6.639,264.589 6.878,264.779L20.14,275.31C20.291,275.43 20.474,275.504 20.666,275.522L62.054,279.515C63.774,290.534 66.441,301.241 69.969,311.551C70.198,312.219 70.43,312.886 70.666,313.551L111.616,313.551C111.31,312.887 111.009,312.22 110.712,311.551C102.373,292.726 97.739,271.9 97.739,250C97.739,227.335 102.702,205.82 111.6,186.483Z" style="fill:rgb(118,126,129);"/>
    </g>
    <path d="M124.805,163.365L80.631,163.365C80.974,162.696 81.322,162.029 81.672,161.365C94.315,137.425 111.916,116.5 133.104,99.963L117.856,66.247C117.792,66.104 117.762,65.947 117.768,65.79L118.417,51.101C118.431,50.772 118.607,50.471 118.886,50.297L141.568,36.148C141.853,35.97 142.209,35.947 142.514,36.087L155.475,42.027C155.629,42.098 155.762,42.206 155.863,42.342L178.903,73.527C197.183,66.147 216.868,61.526 237.441,60.183C238.107,60.139 238.773,60.099 239.441,60.063L239.441,98.101C238.773,98.146 238.106,98.197 237.441,98.251C191.648,101.997 151.564,126.044 126.216,161.365C125.741,162.028 125.27,162.694 124.805,163.365Z" style="fill:rgb(118,126,129);"/>
    <path d="M141.895,272.826C141.895,272.274 142.343,271.826 142.895,271.826L181.328,271.826C181.88,271.826 182.328,272.274 182.328,272.826L182.328,316.852L182.328,316.855C182.318,319.818 182.935,321.775 184.131,322.975C185.298,324.144 186.98,324.546 188.967,324.565L250,324.565L311.033,324.565C313.02,324.546 314.702,324.144 315.869,322.975C317.065,321.775 317.682,319.818 317.672,316.855L317.672,316.852L317.672,272.826C317.672,272.274 318.12,271.826 318.672,271.826L357.105,271.826C357.657,271.826 358.105,272.274 358.105,272.826L358.105,282.53C358.105,283.082 357.657,283.53 357.105,283.53L329.938,283.53L329.938,292.921L357.105,292.921C357.657,292.921 358.105,293.369 358.105,293.921L358.105,303.766C358.105,304.318 357.657,304.766 357.105,304.766L329.938,304.766L329.938,320.495L329.937,320.556C329.302,330.989 321.378,336.279 311.644,336.269L299.842,336.269L299.842,363.88C299.842,364.432 299.394,364.88 298.842,364.88L288.857,364.88C288.305,364.88 287.857,364.432 287.857,363.88L287.857,336.269L278.887,336.269L278.887,363.88C278.887,364.432 278.439,364.88 277.887,364.88L267.339,364.88C266.788,364.88 266.339,364.432 266.339,363.88L266.339,336.269L256.948,336.269L256.948,363.88C256.948,364.432 256.5,364.88 255.948,364.88L244.052,364.88C243.5,364.88 243.052,364.432 243.052,363.88L243.052,336.269L233.661,336.269L233.661,363.88C233.661,364.432 233.212,364.88 232.661,364.88L222.113,364.88C221.561,364.88 221.113,364.432 221.113,363.88L221.113,336.269L212.143,336.269L212.143,363.88C212.143,364.432 211.695,364.88 211.143,364.88L201.158,364.88C200.606,364.88 200.158,364.432 200.158,363.88L200.158,336.269L188.356,336.269C178.622,336.279 170.698,330.989 170.063,320.556L170.062,320.495L170.062,304.766L142.895,304.766C142.343,304.766 141.895,304.318 141.895,303.766L141.895,293.921C141.895,293.369 142.343,292.921 142.895,292.921L170.062,292.921L170.062,283.53L142.895,283.53C142.343,283.53 141.895,283.082 141.895,282.53L141.895,272.826Z"/>
    <g transform="matrix(-1,0,0,1,499.435974,0)">
        <path d="M238.877,98.101L238.877,60.063C238.209,60.099 237.543,60.139 236.877,60.183C216.467,61.516 196.931,66.074 178.774,73.352L155.863,42.342C155.762,42.206 155.629,42.098 155.475,42.027L142.514,36.087C142.209,35.947 141.853,35.97 141.568,36.148L118.886,50.297C118.607,50.471 118.431,50.772 118.417,51.101L117.768,65.79C117.762,65.947 117.792,66.104 117.856,66.247L132.957,99.639C111.583,116.226 93.834,137.268 81.108,161.365C80.757,162.029 80.41,162.696 80.067,163.365L124.241,163.365C124.706,162.694 125.177,162.028 125.652,161.365C151,126.044 191.084,101.997 236.877,98.251C237.542,98.197 238.209,98.146 238.877,98.101Z"/>
    </g>
    <g transform="matrix(-1,0,0,-1,499.435974,500.996012)">
        <path d="M238.877,61.059L238.877,99.097C238.209,99.142 237.542,99.193 236.877,99.247C190.239,103.062 149.524,127.934 124.265,164.327C123.805,164.99 123.35,165.657 122.9,166.327L79.073,166.327C79.406,165.658 79.744,164.991 80.085,164.327C92.939,139.281 111.187,117.452 133.291,100.376L117.856,66.247C117.792,66.104 117.762,65.947 117.768,65.79L118.417,51.101C118.431,50.772 118.607,50.471 118.886,50.297L141.568,36.148C141.853,35.97 142.209,35.947 142.514,36.087L155.475,42.027C155.629,42.098 155.762,42.206 155.863,42.342L179.342,74.121C197.338,66.975 216.68,62.498 236.877,61.179C237.543,61.135 238.209,61.095 238.877,61.059Z"/>
    </g>
    <g transform="matrix(1,0,0,-1,-0,500.996012)">
        <path d="M80.649,164.327C80.308,164.991 79.97,165.658 79.637,166.327L123.464,166.327C123.914,165.657 124.369,164.99 124.829,164.327C150.088,127.934 190.803,103.062 237.441,99.247C238.106,99.193 238.773,99.142 239.441,99.097L239.441,61.059C238.773,61.095 238.107,61.135 237.441,61.179C217.081,62.509 197.59,67.048 179.47,74.295L155.863,42.342C155.762,42.206 155.629,42.098 155.475,42.027L142.514,36.087C142.209,35.947 141.853,35.97 141.568,36.148L118.886,50.297C118.607,50.471 118.431,50.772 118.417,51.101L117.768,65.79C117.762,65.947 117.792,66.104 117.856,66.247L133.437,100.7C111.521,117.727 93.422,139.439 80.649,164.327Z" style="fill:rgb(118,126,129);"/>
    </g>
    <g transform="matrix(1,0,0,-1,0,500)">
        <path d="M141.895,303.766C141.895,304.318 142.343,304.766 142.895,304.766L170.062,304.766L170.062,320.495L170.063,320.556C170.698,330.989 178.622,336.279 188.356,336.269L200.158,336.269L200.158,363.88C200.158,364.432 200.606,364.88 201.158,364.88L211.143,364.88C211.695,364.88 212.143,364.432 212.143,363.88L212.143,336.269L221.113,336.269L221.113,363.88C221.113,364.432 221.561,364.88 222.113,364.88L232.661,364.88C233.212,364.88 233.661,364.432 233.661,363.88L233.661,336.269L243.052,336.269L243.052,363.88C243.052,364.432 243.5,364.88 244.052,364.88L255.948,364.88C256.5,364.88 256.948,364.432 256.948,363.88L256.948,336.269L266.339,336.269L266.339,363.88C266.339,364.432 266.788,364.88 267.339,364.88L277.887,364.88C278.439,364.88 278.887,364.432 278.887,363.88L278.887,336.269L287.857,336.269L287.857,363.88C287.857,364.432 288.305,364.88 288.857,364.88L298.842,364.88C299.394,364.88 299.842,364.432 299.842,363.88L299.842,336.269L311.644,336.269C321.378,336.279 329.302,330.989 329.937,320.556L329.938,320.495L329.938,304.766L357.105,304.766C357.657,304.766 358.105,304.318 358.105,303.766L358.105,293.921C358.105,293.369 357.657,292.921 357.105,292.921L329.938,292.921L329.938,283.53L357.105,283.53C357.657,283.53 358.105,283.082 358.105,282.53L358.105,272.826C358.105,272.274 357.657,271.826 357.105,271.826L318.672,271.826C318.12,271.826 317.672,272.274 317.672,272.826L317.672,316.852L317.672,316.855C317.682,319.818 317.065,321.775 315.869,322.975C314.702,324.144 313.02,324.546 311.033,324.565L250,324.565L188.967,324.565C186.98,324.546 185.298,324.144 184.131,322.975C182.935,321.775 182.318,319.818 182.328,316.855L182.328,316.852L182.328,272.826C182.328,272.274 181.88,271.826 181.328,271.826L142.895,271.826C142.343,271.826 141.895,272.274 141.895,272.826L141.895,282.53C141.895,283.082 142.343,283.53 142.895,283.53L170.062,283.53L170.062,292.921L142.895,292.921C142.343,292.921 141.895,293.369 141.895,293.921L141.895,303.766Z"/>
    </g>
</svg>
